<?xml version="1.0" encoding="utf-8"?>
<!-- Generator: Adobe Illustrator 21.0.2, SVG Export Plug-In . SVG Version: 6.00 Build 0)  -->
<svg version="1.1" id="Layer_1" xmlns="http://www.w3.org/2000/svg" xmlns:xlink="http://www.w3.org/1999/xlink" x="0px" y="0px"
	 viewBox="0 0 100 100" style="enable-background:new 0 0 100 100;" xml:space="preserve">
<style type="text/css">
	.st0{fill:none;stroke:#0000FF;stroke-width:3;stroke-miterlimit:10;}
</style>
<g>
	<g>
		<path class="st0" d="M74.5,41c0,15.7-10.7,28.4-24,28.4c-13.3,0-24-12.7-24-28.4V2.8h48V41z"/>
		<path class="st0" d="M56.1,68.4v1.7c0,10.2,8.2,18.4,18.4,18.4l0,0V98H56.1H44.5H26.7v-9.5l0,0c10.2,0,17.8-8.2,17.8-18.4v-1.7"/>
		<path class="st0" d="M74.1,12.3h19.2c0,0-1,28.8-19.9,37.1"/>
		<path class="st0" d="M26.4,12.3H7.2c0,0,1,28.8,19.9,37.1"/>
	</g>
	<path class="st0" d="M49.9,15.7l-4.5,9.2l-10.1,1.5c-0.9,0.1-1.2,1.2-0.6,1.8l7.3,7.1l-1.7,10.1c-0.1,0.9,0.8,1.5,1.6,1.1l9.3-4.7
		l8.8,4.7c0.8,0.4,1.7-0.3,1.6-1.1l-1.7-10.1l7.3-7.1c0.6-0.6,0.3-1.7-0.6-1.8l-10.1-1.5l-4.5-9.2C51.5,14.9,50.3,14.9,49.9,15.7z"
		/>
</g>
</svg>
